<svg xmlns="http://www.w3.org/2000/svg" width="160" height="160" viewBox="0 0 160 160" fill="none">
  <rect width="160" height="160" rx="28" fill="#121A2B"/>
  <path d="M40 100c0-22 18-40 40-40s40 18 40 40c0 10-8 18-18 18-7 0-13-4-16-9-3 5-9 9-16 9-10 0-18-8-18-18z" fill="#52E0A3"/>
  <path d="M92 66c8-8 12-18 12-30 8 6 12 14 12 24 0 7-2 14-6 20" stroke="#85F1C6" stroke-width="6" stroke-linecap="round"/>
  <circle cx="70" cy="88" r="6" fill="#121A2B"/>
  <circle cx="98" cy="88" r="6" fill="#121A2B"/>
  <path d="M72 110c6 4 10 4 16 0" stroke="#121A2B" stroke-width="6" stroke-linecap="round"/>
</svg>